# Blender v2.83.9 OBJ File: 'planet.blend'
# www.blender.org
mtllib box.mtl
o Cube
v -9.365088 -9.365088 9.365088
v -9.365088 9.365088 9.365088
v -9.365088 -9.365088 -9.365088
v -9.365088 9.365088 -9.365088
v 9.365088 -9.365088 9.365088
v 9.365088 9.365088 9.365088
v 9.365088 -9.365088 -9.365088
v 9.365088 9.365088 -9.365088
vt 0.333096 -0.000319
vt 0.333096 0.499599
vt -0.000183 0.499599
vt -0.000183 -0.000319
vt 0.999682 -0.001091
vt 0.999682 0.498827
vt 0.666403 0.498827
vt 0.666403 -0.001091
vt 0.000280 1.001574
vt 0.000280 0.501656
vt 0.333559 0.501656
vt 0.333559 1.001574
vt 1.000424 0.500285
vt 1.000424 1.000203
vt 0.667145 1.000203
vt 0.667145 0.500285
vt 0.333532 0.500929
vt 0.666811 0.500929
vt 0.666811 1.000847
vt 0.333532 1.000847
vt 0.333808 0.000164
vt 0.667087 0.000163
vt 0.667087 0.500082
vt 0.333808 0.500082
vn -0.5773 -0.5773 0.5773
vn -0.5773 0.5773 0.5773
vn -0.5773 0.5773 -0.5773
vn -0.5773 -0.5773 -0.5773
vn 0.5773 0.5773 -0.5773
vn 0.5773 -0.5773 -0.5773
vn 0.5773 0.5773 0.5773
vn 0.5773 -0.5773 0.5773
usemtl Material
s 1
f 1/1/1 2/2/2 4/3/3 3/4/4
f 3/5/4 4/6/3 8/7/5 7/8/6
f 7/9/6 8/10/5 6/11/7 5/12/8
f 5/13/8 6/14/7 2/15/2 1/16/1
f 3/17/4 7/18/6 5/19/8 1/20/1
f 8/21/5 4/22/3 2/23/2 6/24/7
